<svg width="274" height="40" viewBox="0 0 274 40" fill="none" xmlns="http://www.w3.org/2000/svg">
<path d="M6.07031 22.668C6.07031 23.1758 5.94531 23.6133 5.69531 23.9805C5.44922 24.3477 5.09375 24.6289 4.62891 24.8242C4.16797 25.0195 3.61719 25.1172 2.97656 25.1172C2.66406 25.1172 2.36523 25.0996 2.08008 25.0645C1.79492 25.0293 1.52539 24.9785 1.27148 24.9121C1.02148 24.8418 0.792969 24.7578 0.585938 24.6602V23.3359C0.933594 23.4883 1.32227 23.627 1.75195 23.752C2.18164 23.873 2.61914 23.9336 3.06445 23.9336C3.42773 23.9336 3.72852 23.8867 3.9668 23.793C4.20898 23.6953 4.38867 23.5586 4.50586 23.3828C4.62305 23.2031 4.68164 22.9941 4.68164 22.7559C4.68164 22.502 4.61328 22.2871 4.47656 22.1113C4.33984 21.9355 4.13281 21.7754 3.85547 21.6309C3.58203 21.4824 3.23828 21.3242 2.82422 21.1562C2.54297 21.043 2.27344 20.9141 2.01562 20.7695C1.76172 20.625 1.53516 20.4551 1.33594 20.2598C1.13672 20.0645 0.978516 19.834 0.861328 19.5684C0.748047 19.2988 0.691406 18.9824 0.691406 18.6191C0.691406 18.1348 0.806641 17.7207 1.03711 17.377C1.27148 17.0332 1.59961 16.7695 2.02148 16.5859C2.44727 16.4023 2.94336 16.3105 3.50977 16.3105C3.95898 16.3105 4.38086 16.3574 4.77539 16.4512C5.17383 16.5449 5.56445 16.6777 5.94727 16.8496L5.50195 17.9805C5.15039 17.8359 4.80859 17.7207 4.47656 17.6348C4.14844 17.5488 3.8125 17.5059 3.46875 17.5059C3.17188 17.5059 2.91992 17.5508 2.71289 17.6406C2.50586 17.7305 2.34766 17.8574 2.23828 18.0215C2.13281 18.1816 2.08008 18.373 2.08008 18.5957C2.08008 18.8457 2.14062 19.0566 2.26172 19.2285C2.38672 19.3965 2.57812 19.5508 2.83594 19.6914C3.09766 19.832 3.43359 19.9883 3.84375 20.1602C4.31641 20.3555 4.7168 20.5605 5.04492 20.7754C5.37695 20.9902 5.63086 21.248 5.80664 21.5488C5.98242 21.8457 6.07031 22.2188 6.07031 22.668ZM8.95898 15.8828V18.1738C8.95898 18.4121 8.95117 18.6445 8.93555 18.8711C8.92383 19.0977 8.91016 19.2734 8.89453 19.3984H8.9707C9.10742 19.1719 9.27539 18.9863 9.47461 18.8418C9.67383 18.6934 9.89648 18.582 10.1426 18.5078C10.3926 18.4336 10.6582 18.3965 10.9395 18.3965C11.4355 18.3965 11.8574 18.4805 12.2051 18.6484C12.5527 18.8125 12.8184 19.0684 13.002 19.416C13.1895 19.7637 13.2832 20.2148 13.2832 20.7695V25H11.9062V21.0273C11.9062 20.5234 11.8027 20.1465 11.5957 19.8965C11.3887 19.6426 11.0684 19.5156 10.6348 19.5156C10.2168 19.5156 9.88477 19.6035 9.63867 19.7793C9.39648 19.9512 9.22266 20.207 9.11719 20.5469C9.01172 20.8828 8.95898 21.293 8.95898 21.7773V25H7.58203V15.8828H8.95898ZM17.7539 18.3906C18.5742 18.3906 19.1934 18.5723 19.6113 18.9355C20.0332 19.2988 20.2441 19.8652 20.2441 20.6348V25H19.2656L19.002 24.0801H18.9551C18.7715 24.3145 18.582 24.5078 18.3867 24.6602C18.1914 24.8125 17.9648 24.9258 17.707 25C17.4531 25.0781 17.1426 25.1172 16.7754 25.1172C16.3887 25.1172 16.043 25.0469 15.7383 24.9062C15.4336 24.7617 15.1934 24.543 15.0176 24.25C14.8418 23.957 14.7539 23.5859 14.7539 23.1367C14.7539 22.4688 15.002 21.9668 15.498 21.6309C15.998 21.2949 16.752 21.1094 17.7598 21.0742L18.8848 21.0332V20.6934C18.8848 20.2441 18.7793 19.9238 18.5684 19.7324C18.3613 19.541 18.0684 19.4453 17.6895 19.4453C17.3652 19.4453 17.0508 19.4922 16.7461 19.5859C16.4414 19.6797 16.1445 19.7949 15.8555 19.9316L15.4102 18.959C15.7266 18.791 16.0859 18.6543 16.4883 18.5488C16.8945 18.4434 17.3164 18.3906 17.7539 18.3906ZM18.8789 21.9004L18.041 21.9297C17.3535 21.9531 16.8711 22.0703 16.5938 22.2812C16.3164 22.4922 16.1777 22.7812 16.1777 23.1484C16.1777 23.4688 16.2734 23.7031 16.4648 23.8516C16.6562 23.9961 16.9082 24.0684 17.2207 24.0684C17.6973 24.0684 18.0918 23.9336 18.4043 23.6641C18.7207 23.3906 18.8789 22.9902 18.8789 22.4629V21.9004ZM25.459 18.3906C25.5684 18.3906 25.6875 18.3965 25.8164 18.4082C25.9453 18.4199 26.0566 18.4355 26.1504 18.4551L26.0215 19.7441C25.9395 19.7207 25.8379 19.7031 25.7168 19.6914C25.5996 19.6797 25.4941 19.6738 25.4004 19.6738C25.1543 19.6738 24.9199 19.7148 24.6973 19.7969C24.4746 19.875 24.2773 19.9961 24.1055 20.1602C23.9336 20.3203 23.7988 20.5215 23.7012 20.7637C23.6035 21.0059 23.5547 21.2871 23.5547 21.6074V25H22.1719V18.5137H23.25L23.4375 19.6562H23.502C23.6309 19.4258 23.791 19.2148 23.9824 19.0234C24.1738 18.832 24.3926 18.6797 24.6387 18.5664C24.8887 18.4492 25.1621 18.3906 25.459 18.3906ZM29.9355 18.3906C30.5137 18.3906 31.0098 18.5098 31.4238 18.748C31.8379 18.9863 32.1562 19.3242 32.3789 19.7617C32.6016 20.1992 32.7129 20.7227 32.7129 21.332V22.0703H28.3828C28.3984 22.6992 28.5664 23.1836 28.8867 23.5234C29.2109 23.8633 29.6641 24.0332 30.2461 24.0332C30.6602 24.0332 31.0312 23.9941 31.3594 23.916C31.6914 23.834 32.0332 23.7148 32.3848 23.5586V24.6777C32.0605 24.8301 31.7305 24.9414 31.3945 25.0117C31.0586 25.082 30.6562 25.1172 30.1875 25.1172C29.5508 25.1172 28.9902 24.9941 28.5059 24.748C28.0254 24.498 27.6484 24.127 27.375 23.6348C27.1055 23.1426 26.9707 22.5312 26.9707 21.8008C26.9707 21.0742 27.0938 20.457 27.3398 19.9492C27.5859 19.4414 27.9316 19.0547 28.377 18.7891C28.8223 18.5234 29.3418 18.3906 29.9355 18.3906ZM29.9355 19.4277C29.502 19.4277 29.1504 19.5684 28.8809 19.8496C28.6152 20.1309 28.459 20.543 28.4121 21.0859H31.3652C31.3613 20.7617 31.3066 20.4746 31.2012 20.2246C31.0996 19.9746 30.9434 19.7793 30.7324 19.6387C30.5254 19.498 30.2598 19.4277 29.9355 19.4277Z" fill="white"/>
<path d="M62.9313 25.998V20.534H64.7746L65.0486 18.3946H62.9313V17.032C62.9313 16.4146 63.1033 15.992 63.9893 15.992H65.1119V14.0846C64.5659 14.026 64.0166 13.998 63.4673 14C61.8379 14 60.7193 14.9946 60.7193 16.8206V18.3906H58.8879V20.53H60.7233V25.998H62.9313Z" fill="white"/>
<path d="M115.089 17.3313C115.097 17.448 115.097 17.564 115.097 17.68C115.097 21.23 112.395 25.3207 107.457 25.3207C105.936 25.3207 104.523 24.88 103.333 24.1147C103.549 24.1393 103.757 24.148 103.982 24.148C105.237 24.148 106.393 23.724 107.316 23.0007C106.135 22.976 105.146 22.2027 104.805 21.1387C104.971 21.1633 105.137 21.18 105.312 21.18C105.553 21.18 105.795 21.1467 106.019 21.0887C104.788 20.8393 103.866 19.7587 103.866 18.4533V18.42C104.224 18.6193 104.639 18.744 105.079 18.7607C104.356 18.2793 103.882 17.456 103.882 16.5247C103.882 16.026 104.015 15.5687 104.247 15.17C105.569 16.7987 107.557 17.8633 109.785 17.98C109.743 17.78 109.718 17.5727 109.718 17.3647C109.718 15.8847 110.915 14.6793 112.403 14.6793C113.177 14.6793 113.875 15.0033 114.365 15.5273C114.972 15.4107 115.553 15.186 116.069 14.8787C115.87 15.502 115.445 16.026 114.889 16.3587C115.429 16.3 115.953 16.1507 116.435 15.9427C116.069 16.4747 115.613 16.9487 115.089 17.3313Z" fill="white"/>
<path fill-rule="evenodd" clip-rule="evenodd" d="M162.269 15.7553C161.139 14.624 159.636 14.0007 158.035 14C154.737 14 152.051 16.6847 152.05 19.9847C152.05 21.0393 152.325 22.0687 152.849 22.9767L152 26.0773L155.173 25.2447C156.047 25.7213 157.031 25.9727 158.033 25.9733H158.035C161.333 25.9733 164.019 23.2887 164.02 19.9887C164.02 18.39 163.399 16.8867 162.269 15.7553ZM158.035 24.9633H158.033C157.141 24.9627 156.265 24.7233 155.501 24.2693L155.32 24.1613L153.437 24.6553L153.939 22.82L153.821 22.632C153.323 21.84 153.061 20.9247 153.061 19.9847C153.062 17.242 155.293 15.0107 158.037 15.0107C159.366 15.0113 160.615 15.5293 161.554 16.4693C162.493 17.41 163.01 18.6593 163.009 19.9887C163.008 22.7313 160.777 24.9633 158.035 24.9633ZM160.764 21.2373C160.614 21.162 159.879 20.8007 159.742 20.7507C159.605 20.7007 159.506 20.676 159.406 20.8253C159.306 20.9747 159.019 21.3113 158.932 21.4113C158.845 21.5113 158.757 21.5233 158.608 21.4487C158.459 21.374 157.977 21.216 157.405 20.7067C156.961 20.31 156.661 19.8207 156.573 19.6707C156.486 19.5207 156.564 19.44 156.639 19.3653C156.707 19.2987 156.789 19.1907 156.863 19.1033C156.938 19.016 156.963 18.954 157.013 18.854C157.063 18.754 157.038 18.6667 157 18.592C156.963 18.5167 156.663 17.7807 156.539 17.4813C156.418 17.1913 156.295 17.23 156.203 17.226C156.116 17.222 156.016 17.2207 155.917 17.2207C155.817 17.2207 155.655 17.258 155.517 17.4073C155.38 17.5573 154.994 17.9187 154.994 18.6547C154.994 19.3907 155.53 20.102 155.605 20.202C155.679 20.302 156.659 21.812 158.159 22.46C158.517 22.614 158.795 22.706 159.012 22.7753C159.37 22.8893 159.696 22.8727 159.954 22.8347C160.241 22.792 160.839 22.4733 160.963 22.124C161.088 21.7747 161.088 21.4753 161.051 21.4127C161.013 21.35 160.913 21.312 160.764 21.2373Z" fill="white"/>
<path d="M201.322 16.798C202.128 16.798 202.781 16.1449 202.781 15.3393C202.781 14.5337 202.128 13.8807 201.322 13.8807C200.516 13.8807 199.863 14.5337 199.863 15.3393C199.863 16.1449 200.516 16.798 201.322 16.798Z" fill="white"/>
<path d="M204.158 17.9033V25.996H206.671V21.994C206.671 20.938 206.869 19.9153 208.179 19.9153C209.47 19.9153 209.486 21.1226 209.486 22.0606V25.9966H212V21.5586C212 19.3786 211.531 17.7033 208.983 17.7033C207.759 17.7033 206.939 18.3746 206.604 19.01H206.57V17.9033H204.158ZM200.063 17.9033H202.58V25.996H200.063V17.9033Z" fill="white"/>
<path d="M251.643 19.5286C252.399 18.7733 253.716 18.7733 254.471 19.5286L254.943 20L255.885 19.0573L255.414 18.586C254.785 17.9566 253.948 17.6093 253.057 17.6093C252.167 17.6093 251.329 17.9566 250.701 18.586L249.286 20C247.987 21.2993 247.987 23.4146 249.286 24.714C249.936 25.364 250.789 25.6886 251.643 25.6886C252.497 25.6886 253.351 25.364 254 24.714L254.471 24.2426L253.529 23.3L253.057 23.7713C252.277 24.5493 251.009 24.5506 250.229 23.7713C249.449 22.9913 249.449 21.7226 250.229 20.9426L251.643 19.5286Z" fill="white"/>
<path d="M254 15.286L253.529 15.7574L254.471 16.7L254.943 16.2287C255.722 15.4507 256.991 15.4494 257.771 16.2287C258.551 17.0087 258.551 18.2774 257.771 19.0574L256.357 20.4714C255.601 21.2267 254.284 21.2267 253.529 20.4714L253.057 20L252.115 20.9427L252.586 21.414C253.215 22.0434 254.052 22.3907 254.943 22.3907C255.833 22.3907 256.671 22.0434 257.299 21.414L258.714 20C260.013 18.7007 260.013 16.5854 258.714 15.286C257.414 13.986 255.299 13.9867 254 15.286Z" fill="white"/>
</svg>
