<svg width="18" height="18" viewBox="0 0 18 18" fill="none" xmlns="http://www.w3.org/2000/svg">
<path d="M15.7102 6.22872C15.702 5.66097 15.597 5.09772 15.396 4.56672C15.0442 3.65997 14.328 2.94297 13.4212 2.59197C12.897 2.39472 12.3427 2.28897 11.7817 2.27697C11.0602 2.24472 10.8315 2.23572 8.99999 2.23572C7.16849 2.23572 6.93374 2.23572 6.21749 2.27697C5.65724 2.28897 5.10299 2.39472 4.57874 2.59197C3.67199 2.94297 2.95499 3.65997 2.60399 4.56672C2.40674 5.09097 2.30024 5.64522 2.28974 6.20547C2.25749 6.92772 2.24774 7.15647 2.24774 8.98797C2.24774 10.8195 2.24774 11.0535 2.28974 11.7705C2.30099 12.3315 2.40674 12.885 2.60399 13.4107C2.95574 14.3167 3.67199 15.0337 4.57949 15.3847C5.10149 15.5887 5.65574 15.7042 6.21824 15.7222C6.94049 15.7545 7.16924 15.7642 9.00074 15.7642C10.8322 15.7642 11.067 15.7642 11.7832 15.7222C12.3435 15.711 12.8977 15.6052 13.4227 15.408C14.3295 15.0562 15.0457 14.3392 15.3975 13.4332C15.5947 12.9082 15.7005 12.3547 15.7117 11.793C15.744 11.0715 15.7537 10.8427 15.7537 9.01047C15.7522 7.17897 15.7522 6.94647 15.7102 6.22872ZM8.99549 12.4515C7.07999 12.4515 5.52824 10.8997 5.52824 8.98422C5.52824 7.06872 7.07999 5.51697 8.99549 5.51697C10.9095 5.51697 12.4627 7.06872 12.4627 8.98422C12.4627 10.8997 10.9095 12.4515 8.99549 12.4515ZM12.6007 6.19722C12.153 6.19722 11.7922 5.83572 11.7922 5.38872C11.7922 4.94172 12.153 4.58022 12.6007 4.58022C13.047 4.58022 13.4085 4.94172 13.4085 5.38872C13.4085 5.83572 13.047 6.19722 12.6007 6.19722Z" fill="white"/>
<path d="M8.99551 11.2366C10.2394 11.2366 11.2478 10.2282 11.2478 8.98431C11.2478 7.74042 10.2394 6.73206 8.99551 6.73206C7.75162 6.73206 6.74326 7.74042 6.74326 8.98431C6.74326 10.2282 7.75162 11.2366 8.99551 11.2366Z" fill="white"/>
</svg>
