<svg width="18" height="18" viewBox="0 0 18 18" fill="none" xmlns="http://www.w3.org/2000/svg">
<path d="M14.6925 5.0175C13.9449 4.85309 13.2685 4.45608 12.7605 3.88342C12.2526 3.31076 11.939 2.5919 11.865 1.83V1.5H9.27749V11.7525C9.27801 12.2074 9.13539 12.651 8.86982 13.0203C8.60425 13.3897 8.22919 13.6661 7.79778 13.8105C7.36637 13.9548 6.90048 13.9598 6.46609 13.8247C6.03171 13.6895 5.65086 13.4211 5.37749 13.0575C5.13257 12.7356 4.9826 12.3517 4.94453 11.949C4.90647 11.5463 4.98182 11.1411 5.16207 10.779C5.34232 10.4169 5.62028 10.1125 5.96452 9.90019C6.30876 9.68786 6.70554 9.57609 7.10999 9.5775C7.33367 9.57622 7.55623 9.6091 7.76999 9.675V7.05C7.52124 7.01919 7.27057 7.00666 7.01999 7.0125C6.09697 7.03716 5.20118 7.33045 4.4423 7.85645C3.68342 8.38245 3.0944 9.11833 2.74737 9.97398C2.40033 10.8296 2.31035 11.7679 2.48842 12.6739C2.6665 13.5799 3.10492 14.4144 3.74999 15.075C4.4111 15.7472 5.25711 16.2076 6.18051 16.3978C7.10391 16.5881 8.06302 16.4995 8.93598 16.1434C9.80894 15.7873 10.5563 15.1798 11.0832 14.3979C11.6101 13.6161 11.8926 12.6953 11.895 11.7525V6.5025C12.9386 7.24796 14.19 7.64673 15.4725 7.6425V5.0925C15.2206 5.09354 14.9692 5.0684 14.7225 5.0175H14.6925Z" fill="white"/>
</svg>
