<svg width="18" height="18" viewBox="0 0 18 18" fill="none" xmlns="http://www.w3.org/2000/svg">
<path d="M14.7247 5.99778C14.7345 6.12903 14.7345 6.25953 14.7345 6.39003C14.7345 10.3838 11.6947 14.9858 6.1395 14.9858C4.428 14.9858 2.838 14.49 1.5 13.629C1.743 13.6568 1.977 13.6665 2.22975 13.6665C3.642 13.6665 4.94175 13.1895 5.9805 12.3758C4.65225 12.348 3.53925 11.478 3.15525 10.281C3.342 10.3088 3.5295 10.3275 3.726 10.3275C3.99675 10.3275 4.269 10.29 4.52175 10.2248C3.1365 9.94428 2.09925 8.72853 2.09925 7.26003V7.22253C2.502 7.44678 2.96925 7.58703 3.46425 7.60578C2.6505 7.06428 2.11725 6.13803 2.11725 5.09028C2.11725 4.52928 2.2665 4.01478 2.52825 3.56628C4.0155 5.39853 6.25125 6.59628 8.75775 6.72753C8.71125 6.50253 8.68275 6.26928 8.68275 6.03528C8.68275 4.37028 10.0297 3.01428 11.7037 3.01428C12.5737 3.01428 13.359 3.37878 13.911 3.96828C14.5935 3.83703 15.2475 3.58428 15.828 3.23853C15.6038 3.93978 15.126 4.52928 14.4998 4.90353C15.108 4.83753 15.6975 4.66953 16.239 4.43553C15.828 5.03403 15.3142 5.56728 14.7247 5.99778Z" fill="white"/>
</svg>
