<svg width="336" height="48" viewBox="0 0 336 48" fill="none" xmlns="http://www.w3.org/2000/svg">
<rect width="48" height="48" rx="24" fill="#DBF8FF"/>
<path d="M32 15H16C15.447 15 15 15.448 15 16V32C15 32.552 15.447 33 16 33H24.615V26.04H22.277V23.315H24.615V21.315C24.615 18.99 26.035 17.723 28.115 17.723C28.814 17.721 29.514 17.757 30.21 17.83V20.25H28.775C27.647 20.25 27.427 20.788 27.427 21.575V23.31H30.124L29.774 26.035H27.426V33H32C32.553 33 33 32.552 33 32V16C33 15.448 32.553 15 32 15Z" fill="#019FC4"/>
<rect x="72" width="48" height="48" rx="24" fill="#DBF8FF"/>
<path d="M104.947 20.305C104.936 19.548 104.796 18.797 104.528 18.089C104.059 16.88 103.104 15.924 101.895 15.456C101.196 15.193 100.457 15.052 99.709 15.036C98.747 14.993 98.442 14.981 96 14.981C93.558 14.981 93.245 14.981 92.29 15.036C91.543 15.052 90.804 15.193 90.105 15.456C88.896 15.924 87.94 16.88 87.472 18.089C87.209 18.788 87.067 19.527 87.053 20.274C87.01 21.237 86.997 21.542 86.997 23.984C86.997 26.426 86.997 26.738 87.053 27.694C87.068 28.442 87.209 29.18 87.472 29.881C87.941 31.089 88.896 32.045 90.106 32.513C90.802 32.785 91.541 32.939 92.291 32.963C93.254 33.006 93.559 33.019 96.001 33.019C98.443 33.019 98.756 33.019 99.711 32.963C100.458 32.948 101.197 32.807 101.897 32.544C103.106 32.075 104.061 31.119 104.53 29.911C104.793 29.211 104.934 28.473 104.949 27.724C104.992 26.762 105.005 26.457 105.005 24.014C105.003 21.572 105.003 21.262 104.947 20.305ZM95.994 28.602C93.44 28.602 91.371 26.533 91.371 23.979C91.371 21.425 93.44 19.356 95.994 19.356C98.546 19.356 100.617 21.425 100.617 23.979C100.617 26.533 98.546 28.602 95.994 28.602ZM100.801 20.263C100.204 20.263 99.723 19.781 99.723 19.185C99.723 18.589 100.204 18.107 100.801 18.107C101.396 18.107 101.878 18.589 101.878 19.185C101.878 19.781 101.396 20.263 100.801 20.263Z" fill="#019FC4"/>
<path d="M95.994 26.982C97.6525 26.982 98.997 25.6375 98.997 23.979C98.997 22.3204 97.6525 20.976 95.994 20.976C94.3355 20.976 92.991 22.3204 92.991 23.979C92.991 25.6375 94.3355 26.982 95.994 26.982Z" fill="#019FC4"/>
<rect x="144" width="48" height="48" rx="24" fill="#DBF8FF"/>
<path d="M176 15H160C159.447 15 159 15.448 159 16V32C159 32.552 159.447 33 160 33H176C176.553 33 177 32.552 177 32V16C177 15.448 176.553 15 176 15ZM164.339 30.337H161.667V21.747H164.339V30.337ZM163.003 20.574C162.147 20.574 161.455 19.88 161.455 19.026C161.455 18.172 162.146 17.478 163.003 17.478C163.857 17.478 164.551 18.171 164.551 19.026C164.551 19.881 163.857 20.574 163.003 20.574ZM174.338 30.337H171.669V26.16C171.669 25.164 171.651 23.883 170.281 23.883C168.891 23.883 168.68 24.969 168.68 26.09V30.338H166.013V21.748H168.573V22.922H168.61C168.965 22.247 169.837 21.535 171.134 21.535C173.838 21.535 174.337 23.313 174.337 25.627V30.337H174.338Z" fill="#019FC4"/>
<rect x="216" width="48" height="48" rx="24" fill="#DBF8FF"/>
<path d="M247.59 18.69C246.593 18.4708 245.691 17.9414 245.014 17.1779C244.337 16.4143 243.919 15.4559 243.82 14.44V14H240.37V27.67C240.371 28.2766 240.181 28.868 239.826 29.3604C239.472 29.8529 238.972 30.2215 238.397 30.414C237.822 30.6065 237.201 30.6131 236.621 30.4329C236.042 30.2527 235.534 29.8948 235.17 29.41C234.843 28.9808 234.643 28.4689 234.593 27.932C234.542 27.3951 234.642 26.8548 234.883 26.372C235.123 25.8892 235.494 25.4834 235.953 25.2003C236.412 24.9172 236.941 24.7681 237.48 24.77C237.778 24.7683 238.075 24.8121 238.36 24.9V21.4C238.028 21.3589 237.694 21.3422 237.36 21.35C236.129 21.3829 234.935 21.7739 233.923 22.4753C232.911 23.1766 232.126 24.1578 231.663 25.2986C231.2 26.4395 231.08 27.6905 231.318 28.8986C231.555 30.1066 232.14 31.2191 233 32.1C233.881 32.9962 235.009 33.6101 236.241 33.8638C237.472 34.1175 238.751 33.9994 239.915 33.5246C241.079 33.0498 242.075 32.2397 242.778 31.1973C243.48 30.1548 243.857 28.9271 243.86 27.67V20.67C245.251 21.6639 246.92 22.1956 248.63 22.19V18.79C248.294 18.7914 247.959 18.7579 247.63 18.69H247.59Z" fill="#019FC4"/>
<rect x="288" width="48" height="48" rx="24" fill="#DBF8FF"/>
<path d="M319.633 19.997C319.646 20.172 319.646 20.346 319.646 20.52C319.646 25.845 315.593 31.981 308.186 31.981C305.904 31.981 303.784 31.32 302 30.172C302.324 30.209 302.636 30.222 302.973 30.222C304.856 30.222 306.589 29.586 307.974 28.501C306.203 28.464 304.719 27.304 304.207 25.708C304.456 25.745 304.706 25.77 304.968 25.77C305.329 25.77 305.692 25.72 306.029 25.633C304.182 25.259 302.799 23.638 302.799 21.68V21.63C303.336 21.929 303.959 22.116 304.619 22.141C303.534 21.419 302.823 20.184 302.823 18.787C302.823 18.039 303.022 17.353 303.371 16.755C305.354 19.198 308.335 20.795 311.677 20.97C311.615 20.67 311.577 20.359 311.577 20.047C311.577 17.827 313.373 16.019 315.605 16.019C316.765 16.019 317.812 16.505 318.548 17.291C319.458 17.116 320.33 16.779 321.104 16.318C320.805 17.253 320.168 18.039 319.333 18.538C320.144 18.45 320.93 18.226 321.652 17.914C321.104 18.712 320.419 19.423 319.633 19.997Z" fill="#019FC4"/>
</svg>
